<svg width="24" height="24" fill="none" xmlns="http://www.w3.org/2000/svg"><g clip-path="url(#clip0)"><path d="M22.68 2.32C21.8 1.44 20.74 1 19.5 1h-15c-1.24 0-2.3.44-3.18 1.32C.44 3.2 0 4.26 0 5.5v15c0 1.24.44 2.3 1.32 3.18C2.2 24.56 3.26 25 4.5 25h15c1.24 0 2.3-.44 3.18-1.32.88-.88 1.32-1.94 1.32-3.18v-15c0-1.24-.44-2.3-1.32-3.18zM7.313 21.094h-3.61V10.25h3.61v10.844zM6.985 8.242c-.375.36-.87.54-1.485.54h-.016c-.593 0-1.075-.18-1.445-.54a1.788 1.788 0 01-.555-1.336c0-.541.19-.99.57-1.344.381-.354.873-.53 1.477-.53.604 0 1.089.176 1.453.53.365.355.553.803.563 1.344 0 .531-.187.977-.562 1.336zm13.312 12.852h-3.61v-5.797c0-1.635-.603-2.453-1.812-2.453-.458 0-.844.127-1.156.383a2.406 2.406 0 00-.703.93c-.073.187-.11.478-.11.874v6.062H9.297c.031-6.541.031-10.156 0-10.843h3.61v1.53c.758-1.186 1.836-1.78 3.234-1.78 1.25 0 2.255.411 3.016 1.234.76.823 1.14 2.037 1.14 3.64v6.22z" fill="#F2F2F2"/></g><defs><clipPath id="clip0"><path fill="#fff" d="M0 0h24v24H0z"/></clipPath></defs></svg>