<svg width="24" height="24" fill="none" xmlns="http://www.w3.org/2000/svg"><g clip-path="url(#clip0)"><path d="M23.68.32C22.8-.56 21.74-1 20.5-1h-15C4.26-1 3.2-.56 2.32.32 1.44 1.2 1 2.26 1 3.5v15c0 1.24.44 2.3 1.32 3.18C3.2 22.56 4.26 23 5.5 23h15c1.24 0 2.3-.44 3.18-1.32.88-.88 1.32-1.94 1.32-3.18v-15c0-1.24-.44-2.3-1.32-3.18zm-4.32 7.914c.01.094.015.235.015.422 0 .875-.128 1.753-.383 2.633a9.424 9.424 0 01-1.172 2.531 9.848 9.848 0 01-1.882 2.141c-.73.62-1.604 1.115-2.625 1.484a9.555 9.555 0 01-3.281.555 9.21 9.21 0 01-5.031-1.468c.25.03.51.046.78.046 1.511 0 2.87-.468 4.079-1.406a3.113 3.113 0 01-1.898-.656 3.335 3.335 0 01-1.164-1.625c.27.041.473.062.609.062.229 0 .495-.042.797-.125a3.283 3.283 0 01-1.922-1.133A3.12 3.12 0 015.5 9.61v-.032c.551.26 1.072.396 1.562.407C6.115 9.349 5.64 8.438 5.64 7.25c0-.583.151-1.135.453-1.656a9.3 9.3 0 003 2.422 9.29 9.29 0 003.781 1.015 3.015 3.015 0 01-.078-.75c0-.906.32-1.68.961-2.32A3.161 3.161 0 0116.078 5c.959 0 1.756.344 2.391 1.031a6.527 6.527 0 002.094-.797c-.26.802-.745 1.412-1.453 1.828a6.955 6.955 0 001.89-.53 6.381 6.381 0 01-1.64 1.702z" fill="#F2F2F2"/></g><defs><clipPath id="clip0"><path fill="#fff" d="M0 0h24v24H0z"/></clipPath></defs></svg>